<svg xmlns="http://www.w3.org/2000/svg" width="706" height="706" viewBox="0 0 706 706">
  <defs>
    <style>
      .cls-1 {
        fill: #dbdce8;
        fill-rule: evenodd;
        opacity: 0.4;
      }
    </style>
  </defs>
  <path class="cls-1" d="M182.043,229.291a8.017,8.017,0,1,1-7.959,8.017A7.988,7.988,0,0,1,182.043,229.291ZM180.3,211.77a2,2,0,0,1,3.489,0l5.615,10.019a2,2,0,0,1-1.744,2.978H176.427a2,2,0,0,1-1.744-2.978ZM199.261,239.3c-2.791-3.106-2.791-5.756,0-8.862,1.819-2.025,1.819-3.755,0-5.78-2.764-3.077-2.764-5.586,0-8.663,1.841-2.048,1.841-3.431,0-5.481l1.35-.845c2.236,2.49,2.327,4.583,0,7.172-2.193,2.44-2.453,4.242,0,6.972,2.327,2.589,2.222,5,0,7.471-2.283,2.539-2.372,4.532,0,7.171,2.327,2.59,2.327,4.284,0,6.873l-1.35-.846C201.132,242.4,201.132,241.382,199.261,239.3Zm4.579,0c-2.79-3.106-2.79-5.756,0-8.862,1.821-2.025,1.821-3.755,0-5.78-2.763-3.077-2.763-5.586,0-8.663,1.841-2.048,1.841-3.431,0-5.481l1.351-.845c2.237,2.49,2.327,4.583,0,7.172-2.193,2.44-2.453,4.242,0,6.972,2.327,2.589,2.222,5,0,7.471-2.283,2.539-2.372,4.532,0,7.171,2.327,2.59,2.327,4.284,0,6.873l-1.351-.846C205.712,242.4,205.712,241.382,203.84,239.3Zm-7.809-22.459c-2.194,2.44-2.453,4.242,0,6.972,2.327,2.589,2.222,5,0,7.471-2.284,2.539-2.373,4.532,0,7.171,2.327,2.59,2.327,4.284,0,6.873l-1.35-.846c1.87-2.081,1.87-3.1,0-5.182-2.791-3.106-2.792-5.756,0-8.862,1.819-2.025,1.819-3.755,0-5.78-2.765-3.077-2.765-5.586,0-8.663,1.841-2.048,1.841-3.431,0-5.481l1.35-.845C198.267,212.158,198.358,214.251,196.031,216.84ZM601.549,350.859a8.07,8.07,0,1,0-8.068,7.9A7.986,7.986,0,0,0,601.549,350.859Zm17.6-1.751a2,2,0,0,1,0,3.5l-10.078,5.57a2,2,0,0,1-2.968-1.75v-11.14a2,2,0,0,1,2.968-1.751Zm-27.671-15.337c3.125,2.77,5.792,2.77,8.918,0,2.039-1.806,3.779-1.806,5.817,0,3.1,2.743,5.623,2.743,8.719,0,2.061-1.827,3.454-1.827,5.516,0l0.851-1.34c-2.506-2.219-4.612-2.309-7.218,0-2.456,2.176-4.269,2.435-7.017,0-2.606-2.309-5.029-2.2-7.518,0-2.557,2.265-4.562,2.354-7.218,0-2.607-2.309-4.311-2.309-6.917,0l0.851,1.34C588.356,331.914,589.38,331.914,591.477,333.771Zm0-4.545c3.125,2.769,5.792,2.769,8.918,0,2.039-1.807,3.779-1.807,5.817,0,3.1,2.743,5.623,2.743,8.719,0,2.061-1.827,3.454-1.827,5.516,0l0.851-1.34c-2.506-2.221-4.612-2.309-7.218,0-2.456,2.176-4.269,2.434-7.017,0-2.606-2.309-5.029-2.205-7.518,0-2.557,2.265-4.562,2.354-7.218,0-2.607-2.309-4.311-2.309-6.917,0l0.851,1.34C588.356,327.369,589.38,327.369,591.477,329.226Zm22.6,7.75c-2.456,2.178-4.269,2.435-7.017,0-2.606-2.309-5.029-2.2-7.518,0-2.557,2.267-4.562,2.355-7.218,0-2.607-2.309-4.311-2.309-6.917,0l0.851,1.34c2.1-1.856,3.119-1.856,5.216,0,3.125,2.77,5.792,2.771,8.918,0,2.039-1.806,3.779-1.806,5.817,0,3.1,2.744,5.623,2.744,8.719,0,2.061-1.827,3.454-1.827,5.516,0l0.851-1.34C618.792,334.757,616.686,334.667,614.08,336.976ZM93.021,619.1a8.012,8.012,0,1,1-8.011-7.964A7.988,7.988,0,0,1,93.021,619.1Zm17.513-1.744a2,2,0,0,1,0,3.488l-10.012,5.619a2,2,0,0,1-2.979-1.744V613.481a2,2,0,0,1,2.979-1.744ZM83.02,636.329c3.1-2.792,5.752-2.792,8.856,0,2.024,1.821,3.752,1.821,5.776,0,3.076-2.765,5.583-2.765,8.658,0,2.047,1.842,3.429,1.842,5.478,0l0.844,1.351c-2.489,2.238-4.579,2.328-7.167,0-2.439-2.194-4.239-2.455-6.968,0-2.587,2.328-4.993,2.224-7.465,0-2.538-2.284-4.529-2.373-7.167,0-2.589,2.328-4.281,2.328-6.868,0l0.845-1.351C79.921,638.2,80.938,638.2,83.02,636.329Zm0,4.583c3.1-2.793,5.752-2.793,8.856,0,2.024,1.822,3.752,1.822,5.776,0,3.076-2.766,5.583-2.766,8.658,0,2.047,1.842,3.429,1.842,5.478,0l0.844,1.351c-2.489,2.239-4.579,2.328-7.167,0-2.439-2.2-4.239-2.455-6.968,0-2.587,2.328-4.993,2.223-7.465,0-2.538-2.284-4.529-2.374-7.167,0-2.589,2.328-4.281,2.328-6.868,0l0.845-1.351C79.921,642.784,80.938,642.784,83.02,640.912Zm22.445-7.815c-2.439-2.195-4.239-2.454-6.968,0-2.587,2.329-4.993,2.224-7.465,0-2.538-2.285-4.529-2.374-7.167,0-2.589,2.329-4.281,2.329-6.868,0l0.845-1.351c2.08,1.872,3.1,1.872,5.179,0,3.1-2.792,5.752-2.793,8.856,0,2.024,1.821,3.752,1.821,5.776,0,3.076-2.766,5.583-2.766,8.658,0,2.047,1.842,3.429,1.842,5.478,0l0.844,1.351C110.143,635.335,108.053,635.426,105.465,633.1ZM551.99,120.176a8.095,8.095,0,1,1,8-8.094A8.048,8.048,0,0,1,551.99,120.176Zm1.747,17.7a2,2,0,0,1-3.493,0l-5.67-10.161a2,2,0,0,1,1.747-2.974h11.338a2,2,0,0,1,1.747,2.974Zm-19.053-27.808c2.805,3.136,2.805,5.811,0,8.947-1.83,2.045-1.83,3.791,0,5.836,2.777,3.107,2.777,5.641,0,8.747-1.851,2.068-1.851,3.465,0,5.534l-1.358.853c-2.247-2.514-2.338-4.627,0-7.24,2.2-2.465,2.466-4.284,0-7.041-2.338-2.614-2.233-5.044,0-7.542,2.295-2.565,2.384-4.577,0-7.241-2.338-2.616-2.338-4.325,0-6.939l1.358,0.853C532.8,106.941,532.8,107.969,534.684,110.072Zm-4.6,0c2.8,3.136,2.8,5.811,0,8.947-1.83,2.045-1.83,3.791,0,5.836,2.778,3.107,2.778,5.641,0,8.747-1.85,2.068-1.85,3.465,0,5.534l-1.357.853c-2.249-2.514-2.339-4.627,0-7.24,2.2-2.465,2.466-4.284,0-7.041-2.339-2.614-2.234-5.044,0-7.542,2.294-2.565,2.384-4.577,0-7.241-2.339-2.616-2.339-4.325,0-6.939l1.357,0.853C528.2,106.941,528.2,107.969,530.08,110.072Zm7.85,22.677c2.205-2.465,2.465-4.284,0-7.041-2.339-2.614-2.234-5.044,0-7.542,2.3-2.565,2.385-4.577,0-7.241-2.339-2.616-2.339-4.325,0-6.939l1.357,0.853c-1.88,2.1-1.88,3.13,0,5.233,2.8,3.136,2.806,5.811,0,8.947-1.829,2.045-1.829,3.791,0,5.836,2.779,3.107,2.779,5.641,0,8.747-1.85,2.068-1.85,3.465,0,5.534l-1.357.853C535.682,137.475,535.591,135.362,537.93,132.749ZM398.75,489.3a8.07,8.07,0,1,0,8.068-7.9A7.984,7.984,0,0,0,398.75,489.3Zm-17.6,1.75a2,2,0,0,1,0-3.5l10.079-5.57a2,2,0,0,1,2.967,1.751v11.14a2,2,0,0,1-2.967,1.75Zm27.672,15.338c-3.126-2.77-5.793-2.77-8.919,0-2.038,1.806-3.779,1.806-5.817,0-3.1-2.743-5.622-2.743-8.719,0-2.061,1.826-3.453,1.826-5.516,0L379,507.727c2.506,2.22,4.612,2.31,7.217,0,2.456-2.176,4.27-2.434,7.018,0,2.606,2.31,5.028,2.206,7.518,0,2.556-2.265,4.561-2.353,7.217,0,2.608,2.31,4.312,2.31,6.917,0l-0.851-1.339C411.943,508.245,410.918,508.245,408.822,506.388Zm0,4.545c-3.126-2.77-5.793-2.77-8.919,0-2.038,1.807-3.779,1.807-5.817,0-3.1-2.743-5.622-2.743-8.719,0-2.061,1.827-3.453,1.827-5.516,0l-0.85,1.34c2.506,2.22,4.612,2.309,7.217,0,2.456-2.177,4.27-2.435,7.018,0,2.606,2.309,5.028,2.2,7.518,0,2.556-2.265,4.561-2.354,7.217,0,2.608,2.309,4.312,2.309,6.917,0l-0.851-1.34C411.943,512.79,410.918,512.79,408.822,510.933Zm-22.6-7.751c2.456-2.177,4.27-2.434,7.018,0,2.606,2.31,5.028,2.206,7.518,0,2.556-2.266,4.561-2.355,7.217,0,2.608,2.31,4.312,2.31,6.917,0l-0.851-1.34c-2.094,1.857-3.119,1.857-5.215,0-3.126-2.769-5.793-2.77-8.919,0-2.038,1.806-3.779,1.806-5.817,0-3.1-2.744-5.622-2.744-8.719,0-2.061,1.827-3.453,1.827-5.516,0l-0.85,1.34C381.507,505.4,383.613,505.492,386.218,503.182Z"/>
</svg>
