<svg xmlns="http://www.w3.org/2000/svg" width="706" height="706" viewBox="0 0 706 706">
  <defs>
    <style>
      .cls-1 {
        fill: #dbdce8;
        fill-rule: evenodd;
        opacity: 0.4;
      }
    </style>
  </defs>
  <path class="cls-1" d="M149.761,208.094A12.947,12.947,0,1,1,136.9,221.04,12.9,12.9,0,0,1,149.761,208.094Zm-1.745-30.213a2,2,0,0,1,3.489,0l11.176,19.928a2,2,0,0,1-1.744,2.978H138.585a2,2,0,0,1-1.745-2.978Zm29.569,46.375c-4.51-5.016-4.51-9.295,0-14.312,2.941-3.271,2.941-6.063,0-9.334-4.466-4.969-4.466-9.022,0-13.991,2.975-3.307,2.975-5.541,0-8.851l2.182-1.365c3.614,4.022,3.76,7.4,0,11.582-3.544,3.941-3.964,6.85,0,11.261,3.76,4.181,3.591,8.068,0,12.064-3.689,4.1-3.833,7.32,0,11.582,3.76,4.183,3.76,6.918,0,11.1l-2.182-1.366C180.609,229.264,180.609,227.62,177.585,224.256Zm7.4,0c-4.51-5.016-4.51-9.295,0-14.312,2.942-3.271,2.942-6.063,0-9.334-4.466-4.969-4.466-9.022,0-13.991,2.975-3.307,2.975-5.541,0-8.851l2.182-1.365c3.615,4.022,3.76,7.4,0,11.582-3.544,3.941-3.964,6.85,0,11.261,3.76,4.181,3.591,8.068,0,12.064-3.688,4.1-3.833,7.32,0,11.582,3.76,4.183,3.76,6.918,0,11.1l-2.182-1.366C188.01,229.264,188.01,227.62,184.986,224.256Zm-12.62-36.271c-3.546,3.941-3.964,6.85,0,11.261,3.76,4.181,3.591,8.068,0,12.064-3.69,4.1-3.835,7.32,0,11.582,3.76,4.183,3.76,6.918,0,11.1l-2.182-1.366c3.022-3.361,3.022-5,0-8.369-4.51-5.016-4.512-9.295,0-14.312,2.941-3.271,2.941-6.063,0-9.334-4.468-4.969-4.468-9.022,0-13.991,2.975-3.307,2.975-5.541,0-8.851l2.182-1.365C175.98,180.425,176.126,183.8,172.366,187.985ZM645.073,368.9a13.041,13.041,0,1,0-13.038,12.756A12.9,12.9,0,0,0,645.073,368.9Zm30.389-1.751a2,2,0,0,1,0,3.5L655.4,381.727a2,2,0,0,1-2.967-1.751V357.813a2,2,0,0,1,2.967-1.751ZM628.8,341.3c5.051,4.473,9.361,4.473,14.413,0,3.294-2.917,6.106-2.917,9.4,0,5,4.429,9.086,4.429,14.09,0,3.331-2.951,5.581-2.951,8.914,0l1.375-2.164c-4.05-3.584-7.453-3.73-11.664,0-3.969,3.515-6.9,3.932-11.34,0-4.211-3.73-8.126-3.562-12.15,0-4.13,3.658-7.371,3.8-11.663,0-4.213-3.73-6.967-3.73-11.178,0l1.376,2.164C623.754,338.3,625.409,338.3,628.8,341.3Zm0-7.34c5.051,4.472,9.361,4.472,14.413,0,3.294-2.919,6.106-2.919,9.4,0,5,4.429,9.086,4.429,14.09,0,3.331-2.951,5.581-2.951,8.914,0l1.375-2.164c-4.05-3.587-7.453-3.73-11.664,0-3.969,3.514-6.9,3.931-11.34,0-4.211-3.73-8.126-3.562-12.15,0-4.13,3.658-7.371,3.8-11.663,0-4.213-3.73-6.967-3.73-11.178,0l1.376,2.164C623.754,330.958,625.409,330.958,628.8,333.958Zm36.527,12.517c-3.969,3.516-6.9,3.931-11.34,0-4.211-3.73-8.126-3.562-12.15,0-4.13,3.659-7.371,3.8-11.663,0-4.213-3.73-6.967-3.73-11.178,0l1.376,2.163c3.385-3,5.04-3,8.428,0,5.051,4.473,9.361,4.475,14.413,0,3.294-2.916,6.106-2.916,9.4,0,5,4.432,9.086,4.432,14.09,0,3.331-2.95,5.581-2.95,8.914,0l1.375-2.163C672.938,342.89,669.535,342.745,665.324,346.475ZM75.39,627.682a12.947,12.947,0,1,1-12.946-12.861A12.9,12.9,0,0,1,75.39,627.682Zm30.214-1.744a2,2,0,0,1,0,3.489L85.676,640.6a2,2,0,0,1-2.978-1.745V616.506a2,2,0,0,1,2.978-1.744ZM59.228,655.507c5.016-4.51,9.3-4.51,14.312,0,3.271,2.94,6.064,2.94,9.334,0,4.97-4.466,9.022-4.466,13.991,0,3.308,2.975,5.542,2.975,8.852,0l1.364,2.182c-4.021,3.613-7.4,3.76-11.581,0-3.942-3.544-6.851-3.964-11.261,0-4.181,3.76-8.068,3.591-12.064,0-4.1-3.689-7.32-3.833-11.582,0-4.183,3.76-6.918,3.76-11.1,0l1.365-2.182C54.221,658.531,55.864,658.531,59.228,655.507Zm0,7.4c5.016-4.51,9.3-4.51,14.312,0,3.271,2.942,6.064,2.942,9.334,0,4.97-4.466,9.022-4.466,13.991,0,3.308,2.975,5.542,2.975,8.852,0l1.364,2.182c-4.021,3.615-7.4,3.76-11.581,0-3.942-3.544-6.851-3.964-11.261,0-4.181,3.76-8.068,3.591-12.064,0-4.1-3.689-7.32-3.833-11.582,0-4.183,3.76-6.918,3.76-11.1,0l1.365-2.182C54.221,665.932,55.864,665.932,59.228,662.908ZM95.5,650.287c-3.942-3.545-6.851-3.963-11.261,0-4.181,3.761-8.068,3.592-12.064,0-4.1-3.69-7.32-3.834-11.582,0-4.183,3.761-6.918,3.761-11.1,0l1.365-2.181c3.362,3.022,5.005,3.022,8.369,0,5.016-4.51,9.3-4.512,14.312,0,3.271,2.94,6.064,2.94,9.334,0,4.97-4.468,9.022-4.468,13.991,0,3.308,2.975,5.542,2.975,8.852,0l1.364,2.181C103.06,653.9,99.681,654.048,95.5,650.287ZM477.9,82.073a13.041,13.041,0,1,1,12.756-13.038A12.9,12.9,0,0,1,477.9,82.073Zm1.75,30.389a2,2,0,0,1-3.5,0L465.062,92.4a2,2,0,0,1,1.751-2.967h22.163a2,2,0,0,1,1.751,2.967ZM450.3,65.8c4.473,5.051,4.473,9.361,0,14.413-2.917,3.294-2.917,6.106,0,9.4,4.429,5,4.429,9.086,0,14.09-2.951,3.331-2.951,5.581,0,8.914l-2.164,1.375c-3.584-4.05-3.73-7.453,0-11.664,3.515-3.969,3.932-6.9,0-11.34-3.73-4.211-3.562-8.126,0-12.149,3.658-4.131,3.8-7.371,0-11.663-3.73-4.213-3.73-6.967,0-11.178l2.164,1.375C447.3,60.754,447.3,62.409,450.3,65.8Zm-7.34,0c4.472,5.051,4.472,9.361,0,14.413-2.919,3.294-2.919,6.106,0,9.4,4.429,5,4.429,9.086,0,14.09-2.951,3.331-2.951,5.581,0,8.914l-2.164,1.375c-3.587-4.05-3.73-7.453,0-11.664,3.514-3.969,3.931-6.9,0-11.34-3.73-4.211-3.562-8.126,0-12.149,3.658-4.131,3.8-7.371,0-11.663-3.73-4.213-3.73-6.967,0-11.178l2.164,1.375C439.958,60.754,439.958,62.409,442.958,65.8Zm12.517,36.527c3.516-3.969,3.931-6.9,0-11.34-3.73-4.211-3.562-8.126,0-12.149,3.659-4.131,3.8-7.371,0-11.663-3.73-4.213-3.73-6.967,0-11.178l2.163,1.375c-3,3.385-3,5.041,0,8.428,4.473,5.051,4.475,9.361,0,14.413-2.916,3.294-2.916,6.106,0,9.4,4.432,5,4.432,9.086,0,14.09-2.95,3.331-2.95,5.581,0,8.914l-2.163,1.375C451.89,109.938,451.745,106.535,455.475,102.324ZM415.927,531.105a13.041,13.041,0,1,0,13.038-12.756A12.9,12.9,0,0,0,415.927,531.105Zm-30.389,1.751a2,2,0,0,1,0-3.5L405.6,518.273a2,2,0,0,1,2.967,1.751v22.163a2,2,0,0,1-2.967,1.751ZM432.2,558.7c-5.051-4.473-9.361-4.473-14.413,0-3.294,2.917-6.106,2.917-9.4,0-5-4.429-9.086-4.429-14.09,0-3.331,2.951-5.581,2.951-8.914,0l-1.375,2.164c4.05,3.584,7.453,3.73,11.664,0,3.969-3.515,6.9-3.932,11.34,0,4.211,3.73,8.126,3.562,12.15,0,4.13-3.658,7.371-3.8,11.663,0,4.213,3.73,6.967,3.73,11.178,0l-1.376-2.164C437.246,561.7,435.591,561.7,432.2,558.7Zm0,7.34c-5.051-4.472-9.361-4.472-14.413,0-3.294,2.919-6.106,2.919-9.4,0-5-4.429-9.086-4.429-14.09,0-3.331,2.951-5.581,2.951-8.914,0l-1.375,2.164c4.05,3.587,7.453,3.73,11.664,0,3.969-3.514,6.9-3.931,11.34,0,4.211,3.73,8.126,3.562,12.15,0,4.13-3.658,7.371-3.8,11.663,0,4.213,3.73,6.967,3.73,11.178,0l-1.376-2.164C437.246,569.042,435.591,569.042,432.2,566.042Zm-36.527-12.517c3.969-3.516,6.9-3.931,11.34,0,4.211,3.73,8.126,3.562,12.15,0,4.13-3.659,7.371-3.8,11.663,0,4.213,3.73,6.967,3.73,11.178,0l-1.376-2.163c-3.385,3-5.04,3-8.428,0-5.051-4.473-9.361-4.475-14.413,0-3.294,2.916-6.106,2.916-9.4,0-5-4.432-9.086-4.432-14.09,0-3.331,2.95-5.581,2.95-8.914,0l-1.375,2.163C388.062,557.11,391.465,557.255,395.676,553.525Z"/>
</svg>
